<?xml version="1.0" encoding="UTF-8" standalone="no"?>
<!-- Created with Inkscape (http://www.inkscape.org/) -->

<svg
   width="210mm"
   height="297mm"
   viewBox="0 0 210 297"
   version="1.1"
   id="svg1"
   inkscape:version="1.4.2 (ebf0e940d0, 2025-05-08)"
   sodipodi:docname="netword_hex.svg"
   xmlns:inkscape="http://www.inkscape.org/namespaces/inkscape"
   xmlns:sodipodi="http://sodipodi.sourceforge.net/DTD/sodipodi-0.dtd"
   xmlns="http://www.w3.org/2000/svg"
   xmlns:svg="http://www.w3.org/2000/svg">
  <sodipodi:namedview
     id="namedview1"
     pagecolor="#ffffff"
     bordercolor="#000000"
     borderopacity="0.25"
     inkscape:showpageshadow="2"
     inkscape:pageopacity="0.0"
     inkscape:pagecheckerboard="0"
     inkscape:deskcolor="#d1d1d1"
     inkscape:document-units="mm"
     inkscape:zoom="2.9432972"
     inkscape:cx="521.52396"
     inkscape:cy="642.13699"
     inkscape:window-width="2140"
     inkscape:window-height="1395"
     inkscape:window-x="9"
     inkscape:window-y="9"
     inkscape:window-maximized="1"
     inkscape:current-layer="layer1"
     showgrid="false" />
  <defs
     id="defs1" />
  <g
     inkscape:label="Camada 1"
     inkscape:groupmode="layer"
     id="layer1">
    <g
       id="g3-6-6"
       transform="matrix(0.03260507,0,0,0.03260507,64.651695,119.5688)"
       style="fill:#cdde87;fill-opacity:1">
      <polygon
         class="st1"
         points="1272.8,1441.4 2484.1,742.1 1273,43.9 61.9,742.1 "
         id="polygon1-1-5"
         style="fill:#cdde87;fill-opacity:1" />
      <polygon
         class="st1"
         points="32.9,1375.6 20.9,1360.7 20.8,1361.1 21.3,1496.6 33.2,1511.2 36.2,1514.8 37.3,1873.1 34.3,1871.7 22.3,1866.5 22.2,1866.4 22.6,1987.3 34.6,1993.3 37.6,1994.7 38.1,2182.2 1248.8,2883.5 1244.4,2696.6 1253.4,2702.6 1253,2581.7 1244,2575.2 1243,2212.3 1252,2211.8 1251.6,2076.4 1251.5,2075.9 1242.6,2076.6 1248.5,1483.9 36.7,784.1 35.8,1379.4 35.8,1379.3 "
         id="polygon2-2-6"
         style="fill:#cdde87;fill-opacity:1" />
      <polygon
         class="st1"
         points="1297.5,1484.1 1297.7,2882.7 2507.4,2182 2508.8,784.9 "
         id="polygon3-9-9"
         style="fill:#cdde87;fill-opacity:1" />
      <path
         d="m 2533.5,742.1 v 0 0 L 1273.2,15.3 12.5,742.1 v 0 L 14.1,2196 1273,2925.4 v 0 L 2532.3,2196.1 Z M 1273,43.9 2484.1,742.1 1272.8,1441.3 61.9,742.1 Z m -24.2,2839.6 -1210.7,-701.3 -0.5,-187.5 -3,-1.4 -12.1,-5.9 -0.3,-120.9 0.1,0.1 11.9,5.2 3,1.3 -1,-358.2 -3,-3.6 -12,-14.6 -0.5,-135.6 0.1,-0.4 12,14.9 3,3.7 v 0 l 0.9,-595.3 1211.8,699.8 -5.9,592.7 8.9,-0.8 0.1,0.5 0.4,135.5 -9,0.4 1,362.9 9,6.5 0.3,120.9 -9,-6 z M 2507.4,2182 1297.7,2882.7 1297.4,1484.2 2508.7,785 Z"
         id="path3-3-3"
         style="fill:#cdde87;fill-opacity:1" />
    </g>
    <circle
       style="fill:#89a02c;stroke:none;stroke-width:0.61;stroke-dasharray:none"
       id="path14-6"
       cx="141.02718"
       cy="167.60455"
       r="3.402858" />
    <g
       id="g4-1-7"
       transform="matrix(0.03260507,0,0,0.03260507,64.436817,119.58078)">
      <path
         d="m 1273,43.3 1235.5,713.3 v 1426.6 l -4.3,2.5 -1226.9,708.4 -4.3,2.5 -4.3,-2.5 L 41.8,2185.7 v 0 0 l -4.2,-2.4 V 756.6 L 1273,43.3 M 1273,14.4 12.5,742.1 v 1455.6 l 16.8,9.6 1226.9,708.4 16.8,9.7 16.8,-9.7 1226.9,-708.4 16.8,-9.7 V 742.1 Z"
         id="path4-9-4" />
    </g>
    <rect
       style="fill:#89a02c;stroke:none;stroke-width:0.675907;stroke-dasharray:none"
       id="rect16-7"
       width="33.423237"
       height="1.9141076"
       x="106.73801"
       y="181.83205"
       transform="matrix(0.99387931,-0.11047135,0,1,0,0)" />
    <text
       xml:space="preserve"
       style="font-style:normal;font-variant:normal;font-weight:bold;font-stretch:normal;font-size:19.741px;font-family:'Liberation Sans';-inkscape-font-specification:'Liberation Sans, Bold';font-variant-ligatures:normal;font-variant-caps:normal;font-variant-numeric:normal;font-variant-east-asian:normal;fill:#ffffff;stroke:#000000;stroke-width:0.711656;stroke-dasharray:none"
       x="133.90559"
       y="208.14124"
       id="text6-8-5"
       transform="matrix(0.7924059,-0.41971308,-0.01959713,1.2723595,0,0)"><tspan
         sodipodi:role="line"
         id="tspan6-4-4"
         style="font-style:normal;font-variant:normal;font-weight:bold;font-stretch:normal;font-size:19.741px;font-family:'Liberation Sans';-inkscape-font-specification:'Liberation Sans, Bold';font-variant-ligatures:normal;font-variant-caps:normal;font-variant-numeric:normal;font-variant-east-asian:normal;fill:#ffffff;stroke:#000000;stroke-width:0.711656;stroke-dasharray:none"
         x="133.90559"
         y="208.14124">wo<tspan
   style="fill:#55ddff"
   id="tspan17">R</tspan>d</tspan></text>
    <text
       xml:space="preserve"
       style="font-weight:bold;font-size:24.9446px;font-family:'Liberation Sans';-inkscape-font-specification:'Liberation Sans, Bold';text-align:start;writing-mode:lr-tb;direction:ltr;text-anchor:start;fill:#ffffff;stroke:#000000;stroke-width:0.889715;stroke-dasharray:none"
       x="62.964825"
       y="169.81535"
       id="text7-5-7"
       transform="scale(1.0531846,0.94950116)"><tspan
         sodipodi:role="line"
         id="tspan7-0-4"
         style="stroke-width:0.889715;stroke-dasharray:none"
         x="62.964825"
         y="169.81535">N</tspan></text>
    <text
       xml:space="preserve"
       style="font-weight:bold;font-size:24.7448px;font-family:'Liberation Sans';-inkscape-font-specification:'Liberation Sans, Bold';text-align:start;writing-mode:lr-tb;direction:ltr;text-anchor:start;fill:#ffffff;stroke:#000000;stroke-width:1.04492;stroke-dasharray:none"
       x="114.08977"
       y="159.03276"
       id="text8-3-4"
       transform="scale(1.0292822,0.97155085)"><tspan
         sodipodi:role="line"
         id="tspan8-6-3"
         style="fill:#ffffff;stroke-width:1.04492;stroke-dasharray:none"
         x="114.08977"
         y="159.03276">T</tspan></text>
    <rect
       style="fill:#89a02c;stroke:none;stroke-width:0.657835;stroke-dasharray:none"
       id="rect16-0"
       width="31.65984"
       height="1.9141076"
       x="154.24924"
       y="-28.499388"
       transform="matrix(0.41845375,0.90823811,-0.9945897,-0.10388133,0,0)" />
    <text
       xml:space="preserve"
       style="font-weight:bold;font-size:24.1817px;font-family:'Liberation Sans';-inkscape-font-specification:'Liberation Sans, Bold';text-align:start;writing-mode:lr-tb;direction:ltr;text-anchor:start;fill:#ffffff;stroke:#000000;stroke-width:1.07513;stroke-dasharray:none"
       x="92.420876"
       y="172.21654"
       id="text10-6-8"
       transform="scale(1.0644672,0.93943713)"><tspan
         sodipodi:role="line"
         id="tspan10-3-6"
         style="stroke-width:1.07513;stroke-dasharray:none"
         x="92.420876"
         y="172.21654">E</tspan></text>
    <rect
       style="fill:#000080;stroke:none;stroke-width:0.99947;stroke-dasharray:none"
       id="rect11-0-8"
       width="0.14186035"
       height="0.2837207"
       x="149.91153"
       y="165.43758" />
    <rect
       style="fill:#000080;stroke:none;stroke-width:0.682076;stroke-dasharray:none"
       id="rect12-6-4"
       width="19.457867"
       height="4.4598255"
       x="217.672"
       y="-41.07008"
       transform="matrix(0.43019282,0.90273703,-0.53778571,0.84308157,0,0)" />
    <rect
       style="fill:#000080;stroke:none;stroke-width:0.648284;stroke-dasharray:none"
       id="rect13-1-3"
       width="10.760821"
       height="0.94416559"
       x="-76.975853"
       y="171.59547"
       transform="matrix(0.43139026,-0.90216542,0.86707347,0.49818028,0,0)" />
    <circle
       style="fill:#89a02c;stroke:none;stroke-width:0.61;stroke-dasharray:none"
       id="path14"
       cx="104.42521"
       cy="170.78093"
       r="3.402858" />
    <circle
       style="fill:#89a02c;stroke:none;stroke-width:0.748636;stroke-dasharray:none"
       id="path15"
       cx="76.989662"
       cy="186.9445"
       r="5.7423224" />
    <circle
       style="fill:#89a02c;stroke:none;stroke-width:0.61;stroke-dasharray:none"
       id="path16"
       cx="73.381714"
       cy="165.57031"
       r="2.020447" />
    <circle
       style="fill:#89a02c;stroke:none;stroke-width:0.61;stroke-dasharray:none"
       id="path16-67"
       cx="83.751747"
       cy="169.99977"
       r="2.020447" />
    <circle
       style="fill:#89a02c;stroke:none;stroke-width:0.61;stroke-dasharray:none"
       id="path16-0"
       cx="92.351562"
       cy="143.32428"
       r="2.020447" />
    <circle
       style="fill:#89a02c;stroke:none;stroke-width:0.61;stroke-dasharray:none"
       id="path16-6"
       cx="105.23996"
       cy="128.7981"
       r="2.020447" />
    <rect
       style="fill:#89a02c;stroke:none;stroke-width:0.657835;stroke-dasharray:none"
       id="rect16"
       width="31.65984"
       height="1.9141076"
       x="88.30127"
       y="232.66376"
       transform="matrix(0.85985473,-0.51053877,0,1,0,0)" />
    <rect
       style="fill:#000080;stroke:none;stroke-width:0.82032;stroke-dasharray:none"
       id="rect10-2-8"
       width="14.254363"
       height="3.4749141"
       x="118.7654"
       y="132.87178"
       transform="matrix(0.98301565,0.18352177,-0.23907907,0.9710001,0,0)" />
    <rect
       style="fill:#89a02c;stroke:none;stroke-width:0.613767;stroke-dasharray:none"
       id="rect17"
       width="1.701429"
       height="16.363821"
       x="46.229622"
       y="168.59041"
       transform="matrix(1,0,0.15596257,0.98776297,0,0)" />
    <rect
       style="fill:#89a02c;stroke:none;stroke-width:0.633712;stroke-dasharray:none"
       id="rect17-9"
       width="1.701429"
       height="17.444601"
       x="151.93423"
       y="184.16484"
       transform="matrix(1,0,-0.37613203,0.92656608,0,0)"
       inkscape:transform-center-x="5.9958007"
       inkscape:transform-center-y="-1.3190762" />
    <circle
       style="fill:#89a02c;stroke:none;stroke-width:0.61;stroke-dasharray:none"
       id="path14-5"
       cx="92.757355"
       cy="195.23825"
       r="3.402858" />
    <rect
       style="fill:#89a02c;stroke:none;stroke-width:0.680966;stroke-dasharray:none"
       id="rect17-1"
       width="1.7891878"
       height="19.15518"
       x="-128.99002"
       y="-227.52623"
       transform="matrix(0.7932481,-0.60889856,-0.85556093,-0.51770212,0,0)" />
  </g>
</svg>
